<svg aria-hidden="true" style="position: absolute; width: 0; height: 0; overflow: hidden;" version="1.1" xmlns="http://www.w3.org/2000/svg" xmlns:xlink="http://www.w3.org/1999/xlink">
<defs>
<symbol id="icon-Logo" viewBox="0 0 29 32">
<path fill="#266294" style="fill: var(--color1, #266294)" d="M13.618 2.613c-3.379 0.37-6.333 2.403-7.862 5.411-0.552 1.087-0.86 2.079-1.027 3.314-0.082 0.606-0.083 1.901-0.001 2.491 0.283 2.054 1.040 3.753 2.371 5.321 0.376 0.443 1.175 1.24 1.275 1.272 0.041 0.013 0.244 0.149 0.451 0.301 1.281 0.946 2.848 1.566 4.556 1.805 0.531 0.074 1.91 0.084 2.437 0.018 2.815-0.354 5.234-1.765 6.914-4.033 0.631-0.852 1.212-2.011 1.508-3.010 0.949-3.2 0.292-6.603-1.776-9.199-0.324-0.407-1.15-1.228-1.565-1.556-1.137-0.899-2.38-1.519-3.742-1.867-0.86-0.22-1.325-0.277-2.355-0.289-0.493-0.006-1.026 0.004-1.185 0.021zM16.038 2.847c0.811 0.121 1.679 0.359 2.377 0.652 0.135 0.057 0.237 0.116 0.227 0.132-0.019 0.031 0.081 0.081 0.229 0.112 0.050 0.011 0.112 0.040 0.137 0.066 0.064 0.064 0.214 0.138 0.415 0.206 0.182 0.061 1.128 0.67 1.070 0.689-0.019 0.006-0.065-0.005-0.102-0.025s-0.103-0.036-0.147-0.036c-0.044 0-0.163-0.021-0.265-0.047-0.284-0.072-0.698-0.092-0.745-0.036-0.031 0.037-0.004 0.051 0.142 0.072l0.181 0.026-0.196 0.022c-0.125 0.014-0.211 0.043-0.238 0.079-0.047 0.064-0.203 0.105-0.54 0.139-0.141 0.015-0.259 0.047-0.305 0.085l-0.075 0.061 0.078 0.105c0.043 0.058 0.068 0.12 0.057 0.138s0.004 0.033 0.034 0.033 0.045 0.016 0.033 0.035c-0.060 0.096 0.416 0.175 0.611 0.1 0.083-0.032 0.102-0.021 0.231 0.124 0.077 0.087 0.167 0.202 0.199 0.255 0.060 0.099 0.202 0.133 0.248 0.059 0.012-0.020 0.059-0.027 0.104-0.016 0.097 0.024 0.25-0.009 0.25-0.055 0-0.018-0.025-0.057-0.055-0.088-0.051-0.051-0.047-0.058 0.059-0.095 0.134-0.047 0.133-0.101-0.006-0.212-0.128-0.102-0.129-0.176-0.002-0.176 0.194 0 0.309-0.039 0.309-0.106 0-0.081 0.049-0.079 0.237 0.011l0.152 0.073-0.197 0.032c-0.18 0.030-0.195 0.039-0.175 0.104 0.012 0.040 0.022 0.1 0.022 0.134-0.001 0.042 0.056 0.088 0.175 0.144 0.097 0.045 0.199 0.084 0.227 0.086s0.006 0.014-0.048 0.026c-0.142 0.031-0.144 0.093-0.005 0.139 0.066 0.022 0.12 0.054 0.12 0.071 0 0.044-0.024 0.039-0.119-0.023-0.107-0.070-0.177-0.042-0.191 0.075-0.013 0.113-0.161 0.178-0.277 0.12-0.040-0.020-0.193-0.043-0.339-0.051-0.164-0.009-0.276-0.031-0.293-0.057-0.018-0.029-0.069-0.036-0.16-0.022s-0.154 0.006-0.198-0.027c-0.063-0.047-0.063-0.048 0.005-0.031 0.096 0.024 0.169-0.064 0.101-0.121-0.027-0.023-0.069-0.029-0.092-0.015s-0.081 0.030-0.128 0.034c-0.085 0.007-0.085 0.007-0.010-0.028 0.087-0.041 0.101-0.093 0.025-0.093-0.029 0-0.051-0.030-0.051-0.069 0-0.062-0.014-0.067-0.127-0.046-0.070 0.013-0.138 0.029-0.152 0.037-0.045 0.026-0.027 0.117 0.042 0.204 0.037 0.047 0.059 0.099 0.049 0.116s-0.109 0.030-0.221 0.030c-0.236 0-0.436 0.073-0.461 0.168-0.018 0.071-0.050 0.086-0.256 0.122-0.070 0.012-0.127 0.042-0.127 0.067 0 0.060-0.248 0.099-0.334 0.053-0.095-0.051-0.106-0.047-0.106 0.036 0 0.067-0.013 0.071-0.156 0.051-0.18-0.025-0.327 0.003-0.309 0.059 0.007 0.021 0.094 0.066 0.195 0.1 0.201 0.068 0.442 0.288 0.464 0.425 0.020 0.124-0.103 0.21-0.274 0.191-0.077-0.008-0.295-0.032-0.484-0.053-0.273-0.030-0.369-0.029-0.465 0.006-0.121 0.044-0.156 0.107-0.084 0.151 0.046 0.028 0.012 0.328-0.048 0.426-0.034 0.055-0.031 0.072 0.018 0.1 0.041 0.023 0.059 0.075 0.059 0.168v0.134h0.18c0.153 0 0.193 0.014 0.271 0.095 0.145 0.152 0.085 0.261-0.281 0.512-0.306 0.21-0.373 0.301-0.373 0.509 0 0.116-0.174 0.287-0.397 0.39-0.229 0.106-0.326 0.219-0.501 0.581-0.082 0.17-0.172 0.328-0.201 0.352-0.073 0.060-0.065 0.262 0.022 0.557 0.066 0.225 0.069 0.265 0.028 0.41-0.025 0.088-0.083 0.205-0.129 0.26l-0.084 0.1 0.089 0.177c0.049 0.097 0.089 0.214 0.089 0.26 0 0.060 0.082 0.164 0.297 0.372 0.163 0.159 0.338 0.361 0.388 0.449 0.069 0.121 0.134 0.182 0.27 0.251 0.099 0.050 0.245 0.157 0.325 0.239 0.166 0.169 0.271 0.186 0.579 0.095 0.211-0.063 0.391-0.069 0.522-0.018 0.129 0.050 0.227 0.047 0.291-0.010 0.075-0.067 0.612-0.251 0.807-0.277 0.194-0.026 0.235 0.008 0.251 0.206l0.011 0.135 0.271-0.012c0.236-0.010 0.283-0.002 0.363 0.061 0.088 0.069 0.091 0.083 0.071 0.283-0.013 0.124-0.047 0.243-0.084 0.291-0.125 0.161-0.055 0.392 0.207 0.69 0.145 0.165 0.212 0.364 0.333 0.988 0.043 0.224 0.014 0.322-0.19 0.643-0.191 0.3-0.185 0.628 0.017 0.958 0.116 0.189 0.122 0.215 0.125 0.51 0.003 0.27 0.014 0.323 0.081 0.407 0.15 0.186 0.225 0.389 0.218 0.589l-0.007 0.188 0.122 0.008c0.088 0.006 0.167-0.021 0.282-0.095 0.088-0.057 0.192-0.103 0.232-0.103s0.175-0.052 0.302-0.116c0.181-0.091 0.294-0.185 0.525-0.437 0.311-0.338 0.449-0.536 0.423-0.607-0.025-0.070 0.038-0.157 0.175-0.244 0.148-0.093 0.229-0.307 0.196-0.512-0.017-0.102 0-0.146 0.114-0.299 0.074-0.099 0.2-0.229 0.281-0.29 0.174-0.13 0.283-0.313 0.286-0.478 0.001-0.065 0.021-0.213 0.044-0.329 0.032-0.163 0.033-0.231 0.002-0.298-0.022-0.048-0.040-0.209-0.040-0.358 0-0.231 0.014-0.299 0.098-0.464 0.054-0.107 0.13-0.223 0.169-0.259s0.088-0.126 0.108-0.202c0.020-0.075 0.098-0.206 0.173-0.291s0.173-0.227 0.218-0.316c0.131-0.258 0.278-0.734 0.303-0.982 0.026-0.254 0.003-0.279-0.146-0.161-0.047 0.037-0.121 0.068-0.164 0.068s-0.087 0.015-0.099 0.034c-0.035 0.056-0.072 0.039-0.113-0.052-0.052-0.113-0.050-0.223 0.003-0.216 0.090 0.012 0.123-0.005 0.144-0.072 0.015-0.047 0.041-0.063 0.082-0.050s0.079-0.009 0.116-0.066c0.031-0.047 0.102-0.109 0.16-0.139 0.065-0.034 0.097-0.072 0.086-0.102-0.021-0.056 0.098-0.131 0.154-0.097 0.064 0.040 0.013 1.536-0.072 2.095-0.108 0.708-0.498 2.156-0.506 1.876-0.004-0.136-0.043-0.113-0.138 0.083-0.047 0.096-0.15 0.247-0.231 0.337-0.124 0.138-0.151 0.194-0.175 0.369-0.016 0.113-0.068 0.272-0.116 0.353-0.062 0.106-0.090 0.211-0.1 0.371-0.013 0.213-0.026 0.242-0.268 0.605-0.981 1.469-2.294 2.624-3.866 3.398-0.915 0.451-1.716 0.712-2.708 0.881-1.232 0.21-2.521 0.174-3.765-0.104-1.31-0.294-2.631-0.906-3.736-1.732-0.302-0.226-0.373-0.325-0.273-0.382 0.049-0.028 0.040-0.046-0.062-0.138-0.066-0.059-0.082-0.082-0.035-0.053 0.129 0.082 0.204 0.069 0.204-0.035 0-0.072 0.011-0.083 0.059-0.062 0.108 0.048 0.38 0.057 0.433 0.014 0.065-0.054 0.064-0.183-0.003-0.238-0.029-0.024-0.067-0.071-0.084-0.103-0.030-0.056-0.023-0.056 0.141 0.002 0.212 0.075 0.293 0.057 0.364-0.080 0.030-0.058 0.157-0.209 0.282-0.336l0.227-0.231-0.032-0.172c-0.018-0.094-0.033-0.176-0.033-0.181s0.046-0.025 0.102-0.044c0.056-0.019 0.102-0.050 0.102-0.068s0.060-0.043 0.133-0.055c0.073-0.012 0.151-0.044 0.173-0.071 0.026-0.031 0.106-0.048 0.224-0.048 0.202 0 0.315-0.043 0.315-0.12 0-0.027 0.046-0.113 0.102-0.19s0.102-0.172 0.103-0.212c0.001-0.039 0.023-0.109 0.050-0.156 0.056-0.098 0.067-0.494 0.018-0.623-0.028-0.075-0.019-0.095 0.072-0.16 0.144-0.102 0.492-0.581 0.535-0.735 0.050-0.182 0.043-0.387-0.017-0.473-0.030-0.044-0.103-0.082-0.178-0.094-0.183-0.030-0.259-0.067-0.403-0.196-0.154-0.138-0.245-0.171-0.459-0.163-0.099 0.004-0.193-0.015-0.244-0.049-0.056-0.037-0.116-0.047-0.186-0.032-0.087 0.019-0.103 0.012-0.103-0.042 0-0.083-0.337-0.259-0.496-0.259-0.072 0-0.113-0.017-0.113-0.045 0-0.025-0.027-0.054-0.059-0.064s-0.092-0.035-0.133-0.054c-0.112-0.054-0.18-0.010-0.18 0.115 0 0.084-0.009 0.1-0.040 0.070-0.046-0.046-0.007-0.152 0.128-0.351l0.084-0.123-0.086-0.127c-0.048-0.070-0.086-0.147-0.086-0.171 0-0.066-0.165-0.248-0.277-0.306-0.055-0.028-0.222-0.073-0.373-0.1-0.264-0.046-0.279-0.054-0.454-0.235-0.1-0.103-0.21-0.187-0.246-0.187-0.039 0-0.072-0.030-0.084-0.077s-0.063-0.093-0.127-0.118c-0.092-0.035-0.101-0.049-0.065-0.093s0.027-0.052-0.072-0.052c-0.063 0-0.151 0.025-0.195 0.056-0.063 0.044-0.093 0.048-0.142 0.017-0.034-0.022-0.109-0.039-0.166-0.039-0.060 0-0.111-0.021-0.123-0.051-0.011-0.028-0.041-0.051-0.068-0.051s-0.057-0.023-0.068-0.051c-0.011-0.028-0.048-0.051-0.084-0.051-0.072 0-0.087 0.054-0.022 0.076 0.023 0.008 0 0.022-0.051 0.032-0.072 0.014-0.085 0.008-0.059-0.024 0.036-0.044 0.012-0.152-0.034-0.152-0.014 0-0.046 0.023-0.069 0.052s-0.117 0.084-0.207 0.123c-0.1 0.043-0.164 0.092-0.164 0.126-0 0.030-0.030 0.1-0.066 0.155l-0.066 0.1-0.035-0.091c-0.038-0.099-0.158-0.125-0.233-0.051-0.032 0.032-0.063 0.015-0.143-0.076l-0.102-0.117 0.021-0.341c0.024-0.4 0.001-0.442-0.216-0.406l-0.132 0.022 0.025-0.146c0.014-0.080 0.050-0.235 0.080-0.343 0.071-0.257 0.071-0.261-0.043-0.261s-0.145 0.035-0.206 0.226c-0.045 0.145-0.171 0.232-0.171 0.118 0-0.096 0.098-0.72 0.157-1.005 0.062-0.297 0.103-0.38 0.159-0.323s0.080 0.042 0.1-0.062c0.021-0.106 0.157-0.161 0.226-0.092 0.028 0.027 0.050 0.021 0.082-0.023 0.040-0.054 0.047-0.055 0.065-0.006 0.011 0.030 0.021 0.115 0.021 0.188 0 0.188 0.074 0.407 0.133 0.396 0.077-0.015 0.103-0.187 0.069-0.455-0.046-0.367-0.024-0.43 0.259-0.719 0.136-0.139 0.24-0.264 0.231-0.279s-0.001-0.036 0.018-0.048c0.019-0.012 0.034-0.055 0.035-0.096 0-0.074 0.094-0.277 0.229-0.496 0.040-0.064 0.064-0.128 0.055-0.143s0.022-0.037 0.069-0.048c0.047-0.012 0.086-0.036 0.086-0.054s0.069-0.062 0.152-0.1c0.153-0.068 0.188-0.113 0.11-0.142-0.075-0.027 0.019-0.136 0.223-0.258 0.106-0.063 0.192-0.136 0.192-0.161s0.020-0.046 0.045-0.046c0.031 0 0.040 0.032 0.030 0.102-0.012 0.084-0.003 0.102 0.053 0.102 0.037 0 0.088-0.025 0.114-0.056 0.053-0.064 0.489-0.35 0.533-0.35 0.054 0 0.107-0.092 0.085-0.148-0.031-0.082-0.112-0.067-0.155 0.030-0.040 0.088-0.082 0.109-0.101 0.051-0.006-0.019-0.076-0.036-0.155-0.039-0.15-0.006-0.185-0.054-0.093-0.13 0.028-0.023 0.051-0.065 0.051-0.093 0-0.040-0.029-0.047-0.135-0.033-0.074 0.010-0.135 0.005-0.135-0.012 0-0.057 0.193-0.129 0.493-0.184 0.207-0.038 0.345-0.084 0.438-0.148 0.074-0.051 0.178-0.111 0.231-0.134 0.095-0.041 0.095-0.041-0.032 0.12-0.070 0.089-0.144 0.177-0.163 0.196-0.054 0.052-0.127 0.19-0.11 0.207 0.008 0.008 0.109-0 0.224-0.019s0.231-0.025 0.258-0.015 0.071 0.002 0.096-0.020c0.036-0.030 0.060-0.026 0.102 0.016 0.030 0.030 0.078 0.047 0.106 0.036 0.075-0.029 0.101-0.127 0.046-0.17-0.026-0.021-0.049-0.056-0.051-0.080-0.011-0.143-0.015-0.148-0.082-0.127-0.038 0.012-0.115 0.012-0.172-0.001-0.1-0.022-0.102-0.024-0.043-0.090 0.076-0.084 0.091-0.296 0.028-0.381-0.034-0.046-0.103-0.069-0.235-0.080-0.103-0.009-0.187-0.029-0.187-0.045s-0.030-0.030-0.067-0.030c-0.048 0-0.061-0.016-0.046-0.055 0.013-0.033-0.001-0.068-0.035-0.086-0.031-0.017-0.056-0.051-0.056-0.075s-0.037-0.063-0.083-0.088c-0.077-0.041-0.096-0.032-0.279 0.131-0.214 0.191-0.305 0.21-0.289 0.062 0.009-0.088 0.003-0.092-0.149-0.092-0.157 0-0.158-0.001-0.098-0.068 0.035-0.039 0.106-0.068 0.166-0.069 0.171-0.002 0.444-0.079 0.508-0.143 0.032-0.033 0.079-0.059 0.103-0.059 0.064 0 0.125-0.085 0.102-0.143-0.012-0.032-0.049-0.044-0.102-0.034-0.048 0.009-0.083-0-0.083-0.022s0.063-0.038 0.151-0.038c0.116 0 0.188-0.026 0.305-0.108 0.084-0.059 0.153-0.121 0.153-0.136s-0.057-0.019-0.127-0.008c-0.070 0.011-0.178 0.025-0.239 0.032-0.108 0.012-0.111 0.010-0.065-0.061 0.062-0.097 0.746-0.615 0.931-0.704 0.177-0.086 0.335-0.053 0.322 0.067-0.005 0.049 0.011 0.073 0.049 0.073 0.044 0 0.048 0.009 0.017 0.041-0.022 0.022-0.041 0.062-0.041 0.089 0 0.048 0.079 0.045 0.254-0.011 0.037-0.012 0.013 0.009-0.053 0.046s-0.139 0.090-0.161 0.116c-0.049 0.059-0.017 0.159 0.050 0.159 0.027 0 0.057 0.023 0.068 0.051s0.032 0.051 0.048 0.051 0.066 0.037 0.111 0.082c0.11 0.111 0.328 0.167 0.48 0.125 0.071-0.020 0.125-0.020 0.137-0.001 0.011 0.017 0.094 0.031 0.185 0.031 0.138 0 0.183-0.017 0.269-0.101 0.056-0.055 0.103-0.124 0.103-0.152s0.060-0.082 0.133-0.119c0.086-0.044 0.137-0.095 0.144-0.145 0.012-0.082 0.079-0.106 0.586-0.213 0.13-0.027 0.271-0.058 0.313-0.068 0.052-0.012 0.076-0.043 0.076-0.097 0-0.062 0.031-0.091 0.145-0.135 0.080-0.031 0.19-0.056 0.245-0.057 0.245-0.003 1.1-0.168 1.242-0.24 0.032-0.016 0.082-0.030 0.11-0.030 0.072 0 0.064-0.059-0.015-0.101-0.094-0.051-0.050-0.13 0.087-0.156 0.063-0.012 0.115-0.035 0.115-0.052s0.037-0.030 0.083-0.030 0.092-0.015 0.104-0.034c0.012-0.019 0.077-0.034 0.146-0.034 0.093-0 0.112-0.009 0.074-0.033-0.067-0.043-0.203-0.043-0.203 0 0 0.019-0.015 0.034-0.034 0.034s-0.034-0.022-0.034-0.048c0-0.026-0.019-0.056-0.042-0.065s0.022-0.018 0.1-0.020c0.164-0.003 0.22-0.057 0.106-0.101-0.076-0.029-0.076-0.030 0.023-0.052 0.056-0.012 0.147-0.037 0.203-0.056s0.223-0.043 0.372-0.054c0.149-0.011 0.293-0.032 0.321-0.047 0.099-0.052-0.118-0.071-0.719-0.060-0.503 0.009-0.589 0.003-0.556-0.036s-0.081-0.045-0.748-0.032c-0.432 0.008-0.786 0.012-0.786 0.009 0-0.014 0.746-0.12 1.049-0.149 0.516-0.049 1.672-0.015 2.217 0.066zM12.712 2.971c-0.023 0.009-0.061 0.009-0.085 0s-0.004-0.017 0.042-0.017c0.047 0 0.066 0.008 0.042 0.017zM14.421 3.206c-0.011 0.011-0.040 0.012-0.065 0.003-0.027-0.011-0.019-0.019 0.020-0.020 0.036-0.001 0.056 0.007 0.044 0.018zM13.821 3.864c0.038 0.024 0.018 0.033-0.078 0.033-0.077 0-0.121-0.013-0.108-0.033 0.026-0.043 0.12-0.043 0.186 0zM13.948 4.26c-0.112 0.018-0.124 0.077-0.017 0.081 0.070 0.002 0.071 0.005 0.011 0.028-0.087 0.034-0.011 0.084 0.083 0.054 0.039-0.012 0.067-0.006 0.067 0.015s-0.019 0.037-0.042 0.039c-0.098 0.007 0.184 0.068 0.465 0.1 0.304 0.035 0.62 0.009 0.889-0.074 0.127-0.039 0.144-0.115 0.034-0.15-0.042-0.013-0.086-0.039-0.098-0.058-0.013-0.021-0.181-0.031-0.423-0.027-0.595 0.011-0.697 0.010-0.79-0.007-0.047-0.009-0.127-0.009-0.178-0.001zM10.095 4.418c-0.008 0.007-0.082 0.021-0.165 0.032-0.097 0.012-0.133 0.008-0.102-0.012 0.045-0.029 0.298-0.047 0.266-0.020zM16.495 5.228c0 0.023 0.045 0.072 0.099 0.109s0.092 0.079 0.083 0.093c-0.009 0.015-0 0.027 0.019 0.027s0.036 0.032 0.036 0.071c0 0.061 0.014 0.068 0.091 0.049 0.082-0.021 0.086-0.017 0.044 0.034-0.040 0.049-0.039 0.062 0.010 0.099 0.032 0.023 0.048 0.052 0.035 0.064s0.002 0.022 0.032 0.022c0.029 0 0.063-0.019 0.073-0.042 0.016-0.034 0.024-0.034 0.039 0 0.011 0.023 0.050 0.042 0.087 0.042s0.058 0.015 0.046 0.034c-0.012 0.019-0.066 0.034-0.12 0.034-0.104 0-0.125 0.029-0.063 0.091 0.026 0.026 0.011 0.043-0.053 0.059-0.093 0.024-0.1 0.112-0.008 0.095 0.102-0.018 0.094 0.058-0.012 0.113-0.146 0.075-0.084 0.122 0.104 0.078 0.084-0.020 0.307-0.028 0.495-0.019 0.339 0.016 0.486-0.011 0.391-0.073-0.036-0.024-0.035-0.033 0.008-0.050 0.096-0.037 0.064-0.151-0.049-0.176-0.056-0.012-0.128-0.061-0.159-0.109s-0.106-0.107-0.167-0.133c-0.061-0.025-0.127-0.077-0.147-0.114-0.022-0.042-0.072-0.068-0.128-0.069l-0.092-0.001 0.076-0.064c0.134-0.112 0.099-0.171-0.102-0.173-0.144-0.002-0.163-0.008-0.099-0.034 0.043-0.017 0.069-0.047 0.057-0.066-0.033-0.054-0.308-0.041-0.356 0.017-0.023 0.028-0.063 0.051-0.088 0.051-0.027 0-0.037-0.021-0.026-0.051 0.014-0.037-0.004-0.051-0.069-0.051-0.049 0-0.088 0.019-0.088 0.042zM16.304 5.643c-0.011 0.028-0.055 0.051-0.099 0.051-0.104 0-0.142 0.067-0.068 0.121 0.055 0.040 0.054 0.045-0.012 0.081-0.173 0.093-0.020 0.243 0.192 0.189 0.051-0.013 0.161-0.034 0.245-0.046 0.143-0.022 0.152-0.029 0.142-0.12-0.007-0.063 0.011-0.112 0.050-0.141 0.058-0.043 0.058-0.047-0.003-0.115-0.081-0.089-0.415-0.104-0.447-0.020zM20.173 5.784c-0.039 0.039-0.025 0.079 0.028 0.079 0.028 0 0.051-0.023 0.051-0.051 0-0.053-0.040-0.067-0.079-0.028zM21.199 5.828c0.083 0.052 0.025 0.063-0.084 0.015-0.077-0.034-0.085-0.045-0.034-0.045 0.037-0.001 0.090 0.013 0.117 0.031zM7.017 6.526c0 0.057-0.113 0.221-0.21 0.307-0.080 0.071-0.114 0.131-0.119 0.215-0.008 0.126-0.114 0.262-0.175 0.224-0.054-0.033-0.046-0.087 0.013-0.087 0.028 0 0.051-0.015 0.051-0.034s-0.017-0.034-0.037-0.034c-0.036 0 0.216-0.382 0.353-0.534 0.064-0.072 0.124-0.099 0.124-0.058zM7.984 6.945c-0.024 0.039 0.061 0.071 0.187 0.071 0.106 0 0.133-0.047 0.045-0.081-0.079-0.030-0.211-0.025-0.232 0.010zM19.905 7.321c0.033 0 0.083 0.042 0.112 0.093 0.048 0.083 0.104 0.124 0.268 0.193 0.028 0.012 0.081 0.040 0.118 0.063 0.221 0.135 0.255 0.172 0.275 0.294 0.012 0.074 0.065 0.175 0.127 0.244 0.059 0.064 0.11 0.153 0.113 0.196 0.014 0.182 0.28 0.33 0.28 0.156 0-0.060 0.014-0.078 0.050-0.064 0.091 0.035 0.104-0.093 0.017-0.164-0.043-0.035-0.099-0.103-0.124-0.152-0.040-0.078-0.040-0.083 0.007-0.044 0.043 0.036 0.060 0.032 0.098-0.020 0.039-0.054 0.059-0.057 0.134-0.023 0.049 0.022 0.088 0.062 0.088 0.089s0.019 0.056 0.042 0.064c0.032 0.012 0.033 0.025 0.003 0.058s-0.007 0.083 0.102 0.222c0.078 0.099 0.155 0.181 0.173 0.182s0.067 0.036 0.11 0.076c0.069 0.065 0.088 0.068 0.161 0.029 0.074-0.040 0.094-0.035 0.189 0.045 0.112 0.094 0.2 0.113 0.258 0.054 0.103-0.103 0.241 0.179 0.178 0.367-0.017 0.051-0.046 0.157-0.066 0.236-0.037 0.153-0.061 0.167-0.178 0.104-0.041-0.022-0.159-0.042-0.262-0.045-0.133-0.003-0.255-0.036-0.418-0.113-0.127-0.059-0.258-0.108-0.291-0.108s-0.091-0.041-0.127-0.090c-0.053-0.072-0.091-0.089-0.193-0.086-0.165 0.006-0.221 0.056-0.221 0.198 0 0.070-0.019 0.123-0.049 0.135-0.058 0.022-0.33-0.103-0.598-0.276-0.133-0.086-0.25-0.131-0.387-0.149-0.26-0.035-0.369-0.149-0.336-0.347 0.014-0.082 0.008-0.15-0.016-0.179-0.027-0.032-0.028-0.054-0.003-0.069 0.055-0.034 0.043-0.13-0.013-0.108-0.027 0.010-0.065-0.002-0.086-0.027-0.028-0.034-0.117-0.042-0.349-0.032-0.171 0.007-0.342 0.012-0.379 0.009-0.44-0.024-0.657-0.001-0.961 0.101-0.373 0.125-0.444 0.129-0.647 0.034l-0.152-0.071 0.118-0.044c0.065-0.024 0.193-0.046 0.283-0.047 0.135-0.002 0.187-0.022 0.288-0.111 0.2-0.176 0.255-0.259 0.207-0.316-0.059-0.071 0.129-0.254 0.262-0.254 0.135 0 0.227-0.074 0.204-0.163-0.024-0.094 0.079-0.129 0.214-0.073 0.109 0.045 0.248 0.028 0.419-0.054 0.1-0.048 0.125-0.048 0.233-0.002 0.067 0.028 0.15 0.097 0.184 0.154 0.070 0.116 0.243 0.244 0.408 0.301 0.236 0.082 0.603 0.481 0.443 0.481-0.020 0-0.026 0.015-0.015 0.034 0.040 0.064 0.142 0.034 0.182-0.055 0.029-0.064 0.030-0.101 0.004-0.133-0.053-0.064 0.017-0.096 0.104-0.049 0.039 0.021 0.078 0.031 0.086 0.023 0.039-0.039-0.041-0.126-0.192-0.209-0.092-0.050-0.167-0.105-0.167-0.123s-0.035-0.032-0.078-0.032c-0.094 0-0.157-0.048-0.259-0.197-0.042-0.062-0.113-0.126-0.158-0.143-0.047-0.018-0.081-0.058-0.081-0.096 0-0.090 0.068-0.105 0.142-0.031 0.034 0.034 0.088 0.062 0.121 0.062zM19.15 7.471c-0.053 0.039-0.057 0.059-0.024 0.132 0.031 0.069 0.029 0.094-0.010 0.127-0.037 0.031-0.040 0.052-0.011 0.087 0.021 0.025 0.029 0.069 0.018 0.097-0.047 0.123 0.081 0.206 0.175 0.112 0.057-0.057 0.050-0.216-0.012-0.278-0.037-0.037-0.046-0.086-0.031-0.168 0.025-0.133-0.015-0.175-0.105-0.109zM22.064 7.579c0.046 0.030 0.076 0.067 0.066 0.082s0.031 0.067 0.090 0.117c0.082 0.069 0.128 0.085 0.202 0.069 0.081-0.018 0.12 0.002 0.257 0.134 0.089 0.085 0.172 0.155 0.186 0.155 0.044 0 0.203 0.234 0.182 0.268-0.032 0.051-0.297-0.040-0.444-0.153-0.117-0.089-0.154-0.098-0.432-0.104s-0.312-0.014-0.391-0.094c-0.075-0.075-0.081-0.096-0.045-0.154 0.023-0.037 0.042-0.092 0.042-0.121 0-0.058 0.135-0.247 0.179-0.25 0.015-0.001 0.064 0.023 0.11 0.053zM22.613 7.781c-0.008 0.008-0.067-0.004-0.13-0.027l-0.116-0.041 0.102-0.020c0.067-0.013 0.111-0.004 0.13 0.027 0.016 0.026 0.022 0.053 0.014 0.061zM18.245 7.851c-0.032 0.032 0.007 0.080 0.063 0.080 0.027 0 0.049-0.023 0.049-0.051 0-0.051-0.071-0.070-0.112-0.029zM6.289 7.999c-0.012 0.019-0.034 0.027-0.049 0.017s-0.052 0.040-0.081 0.11l-0.053 0.127-0.002-0.144c-0.002-0.138 0.002-0.144 0.102-0.144 0.061 0 0.095 0.014 0.082 0.034zM23.629 8.595c-0.016 0.017-0.229-0.399-0.227-0.443 0.001-0.019 0.055 0.071 0.121 0.198s0.113 0.238 0.106 0.245zM19.711 8.266c0 0.022 0.034 0.053 0.076 0.070s0.122 0.062 0.178 0.101c0.143 0.098 0.179 0.088 0.179-0.049 0-0.091-0.014-0.119-0.060-0.119-0.033 0-0.13-0.010-0.217-0.022-0.109-0.015-0.157-0.010-0.157 0.018zM23.874 9.181c0 0.010-0.038-0.034-0.085-0.097-0.048-0.066-0.084-0.159-0.083-0.218 0.001-0.090 0.012-0.078 0.085 0.097 0.046 0.11 0.083 0.209 0.083 0.218zM21.42 8.898c0.117 0.054 0.22 0.063 0.22 0.020 0-0.036-0.122-0.072-0.237-0.069-0.083 0.002-0.082 0.003 0.017 0.049zM22.41 9.005c-0.090 0.023-0.072 0.112 0.022 0.112 0.067 0 0.122-0.055 0.122-0.121 0-0.017-0.060-0.013-0.144 0.009zM24.028 10.244c0.035 0.079 0.113 0.211 0.174 0.293 0.11 0.148 0.146 0.317 0.076 0.36-0.062 0.038-0.134-0.056-0.134-0.175 0-0.063-0.014-0.114-0.031-0.114-0.041 0-0.194-0.323-0.224-0.474-0.021-0.102-0.017-0.112 0.026-0.076 0.027 0.023 0.078 0.106 0.113 0.186zM22.867 10.34c0.070 0.12 0.127 0.244 0.127 0.276s0.027 0.073 0.060 0.090c0.064 0.034 0.177 0.312 0.177 0.432-0 0.039 0.031 0.111 0.069 0.159s0.086 0.138 0.107 0.199c0.021 0.061 0.076 0.169 0.121 0.238s0.075 0.155 0.066 0.19c-0.009 0.035-0.003 0.152 0.014 0.259s0.023 0.203 0.013 0.213c-0.009 0.009-0.047-0.050-0.083-0.132s-0.104-0.183-0.149-0.225c-0.046-0.042-0.093-0.133-0.106-0.203s-0.065-0.211-0.118-0.314c-0.053-0.103-0.105-0.26-0.117-0.35s-0.052-0.203-0.089-0.25-0.068-0.106-0.068-0.13c0-0.024-0.066-0.187-0.148-0.362-0.138-0.297-0.143-0.318-0.076-0.313 0.050 0.004 0.11 0.071 0.198 0.223zM6.019 10.371c-0.012 0.019 0.003 0.034 0.032 0.034s0.053-0.015 0.053-0.034c0-0.019-0.014-0.034-0.032-0.034s-0.041 0.015-0.053 0.034zM6.035 10.66c0 0.028 0.015 0.051 0.034 0.051s0.034-0.023 0.034-0.051-0.015-0.051-0.034-0.051c-0.019 0-0.034 0.023-0.034 0.051zM5.567 10.992c-0.087 0.093-0.106 0.228-0.023 0.159 0.035-0.029 0.051-0.030 0.051-0.004 0 0.021 0.017 0.038 0.038 0.038s0.030-0.030 0.020-0.069c-0.015-0.058-0.006-0.066 0.055-0.048 0.179 0.052 0.264 0.107 0.302 0.193 0.036 0.080 0.061 0.093 0.183 0.093 0.078 0 0.152-0.015 0.163-0.034 0.042-0.068-0.023-0.172-0.121-0.192-0.054-0.011-0.116-0.042-0.138-0.068-0.055-0.067-0.254-0.146-0.366-0.146-0.052 0-0.123 0.034-0.165 0.078zM6.43 11.072c-0.039 0.039-0.025 0.079 0.028 0.079 0.028 0 0.051-0.023 0.051-0.051 0-0.053-0.040-0.067-0.079-0.028zM6.493 11.357c0.017 0.079 0.009 0.095-0.058 0.105-0.043 0.006-0.078 0.034-0.078 0.062 0 0.037 0.030 0.048 0.115 0.039 0.063-0.006 0.125 0.005 0.137 0.025 0.016 0.025 0.067 0.015 0.163-0.031 0.077-0.037 0.167-0.068 0.2-0.068 0.048 0 0.037-0.023-0.049-0.11-0.093-0.093-0.135-0.11-0.28-0.113-0.169-0.003-0.17-0.003-0.15 0.090zM7.135 11.457c-0.036 0.059 0.035 0.111 0.115 0.085 0.070-0.022 0.1-0.086 0.040-0.086-0.017 0-0.054-0.009-0.081-0.019s-0.061-0.002-0.074 0.020zM6.002 11.592c0 0.071 0.053 0.087 0.131 0.037 0.061-0.038 0.019-0.105-0.066-0.105-0.043 0-0.066 0.023-0.066 0.068zM4.919 12.169c0.025 0.091 0.065 0.15 0.12 0.175 0.046 0.021 0.083 0.051 0.083 0.066s0.023 0.028 0.050 0.028c0.062 0 0.187 0.237 0.187 0.355 0 0.049 0.019 0.086 0.045 0.086 0.025 0 0.063 0.039 0.084 0.086s0.066 0.096 0.098 0.108c0.033 0.012 0.079 0.050 0.104 0.084 0.064 0.089 0.142 0.077 0.142-0.021 0-0.046 0.015-0.092 0.034-0.104s0.034 0.014 0.034 0.057c0 0.043 0.022 0.12 0.048 0.171 0.070 0.134 0.076 0.467 0.011 0.57-0.029 0.046-0.063 0.118-0.076 0.16s-0.037 0.076-0.054 0.076c-0.052 0-0.039 0.53 0.015 0.584 0.040 0.040 0.040 0.056 0 0.111-0.068 0.093-0.057 0.229 0.030 0.36 0.128 0.194 0.217 0.377 0.28 0.572 0.033 0.103 0.088 0.243 0.123 0.312s0.063 0.154 0.063 0.188c0 0.085 0.302 0.393 0.515 0.527 0.188 0.118 0.245 0.302 0.333 1.074 0.037 0.326 0.090 0.668 0.117 0.76 0.053 0.178 0.061 0.369 0.020 0.472-0.021 0.054-0.047 0.037-0.178-0.119-1.157-1.363-1.91-3.040-2.215-4.932-0.053-0.329-0.112-1.943-0.071-1.943 0.011 0 0.037 0.062 0.057 0.137zM24.363 12.441c-0.012 0.020-0.014 0.044-0.004 0.054 0.024 0.024 0.090-0.018 0.090-0.059 0-0.043-0.058-0.040-0.086 0.004zM7.796 12.744c0 0.077 0.035 0.087 0.095 0.027s0.050-0.095-0.027-0.095c-0.045 0-0.068 0.023-0.068 0.068zM6.645 12.914c0 0.037-0.006 0.068-0.013 0.068s-0.021-0.030-0.031-0.068-0.004-0.068 0.013-0.068c0.017 0 0.031 0.030 0.031 0.068zM9.59 14.845c0 0.014-0.038 0.018-0.085 0.009s-0.085-0.028-0.085-0.041 0.038-0.018 0.085-0.009c0.047 0.009 0.085 0.028 0.085 0.041z"></path>
<path fill="#cfe7f5" style="fill: var(--color2, #cfe7f5); stroke: var(--color1, #266294)" stroke="#266294" stroke-linejoin="round" stroke-linecap="round" stroke-miterlimit="4" stroke-width="0.3333" d="M19.583 2.111c0 1.361-1.75 2.528-1.75 2.528s-1.75-1.167-1.75-2.528c0-0.464 0.184-0.909 0.513-1.237s0.773-0.513 1.237-0.513c0.464 0 0.909 0.184 1.237 0.513s0.513 0.773 0.513 1.237z"></path>
<path fill="none" stroke="#266294" style="stroke: var(--color1, #266294)" stroke-linejoin="round" stroke-linecap="round" stroke-miterlimit="4" stroke-width="0.3333" d="M17.833 2.694c0.322 0 0.583-0.261 0.583-0.583s-0.261-0.583-0.583-0.583c-0.322 0-0.583 0.261-0.583 0.583s0.261 0.583 0.583 0.583z"></path>
<path fill="#266294" style="fill: var(--color1, #266294)" d="M1.722 31.060c-0.372 0-0.832-0.036-1.38-0.108v-0.714c0.68 0.104 1.144 0.156 1.392 0.156 0.52 0 0.78-0.134 0.78-0.402v-0.252c0-0.128-0.038-0.226-0.114-0.294-0.072-0.068-0.204-0.102-0.396-0.102h-0.456c-0.856 0-1.284-0.34-1.284-1.020v-0.288c0-0.34 0.142-0.59 0.426-0.75s0.734-0.24 1.35-0.24c0.32 0 0.726 0.026 1.218 0.078v0.696c-0.604-0.072-1.020-0.108-1.248-0.108-0.316 0-0.528 0.026-0.636 0.078-0.116 0.056-0.174 0.144-0.174 0.264v0.276c0 0.204 0.172 0.306 0.516 0.306h0.468c0.444 0 0.766 0.082 0.966 0.246s0.3 0.414 0.3 0.75v0.258c0 0.464-0.166 0.778-0.498 0.942-0.16 0.084-0.338 0.142-0.534 0.174-0.192 0.036-0.424 0.054-0.696 0.054zM5.523 31.060c-1.028 0-1.542-0.314-1.542-0.942v-1.044c0-0.364 0.116-0.628 0.348-0.792 0.236-0.164 0.598-0.246 1.086-0.246 0.46 0 0.796 0.080 1.008 0.24 0.216 0.156 0.324 0.422 0.324 0.798v0.708h-1.884v0.264c0 0.168 0.060 0.288 0.18 0.36s0.336 0.108 0.648 0.108c0.288 0 0.612-0.042 0.972-0.126v0.558c-0.356 0.076-0.736 0.114-1.14 0.114zM5.913 29.284v-0.42c0-0.096-0.040-0.168-0.12-0.216-0.076-0.048-0.206-0.072-0.39-0.072-0.212 0-0.354 0.024-0.426 0.072-0.076 0.052-0.114 0.124-0.114 0.216v0.42h1.050zM8.874 31.060c-1.028 0-1.542-0.314-1.542-0.942v-1.044c0-0.364 0.116-0.628 0.348-0.792 0.236-0.164 0.598-0.246 1.086-0.246 0.46 0 0.796 0.080 1.008 0.24 0.216 0.156 0.324 0.422 0.324 0.798v0.708h-1.884v0.264c0 0.168 0.060 0.288 0.18 0.36s0.336 0.108 0.648 0.108c0.288 0 0.612-0.042 0.972-0.126v0.558c-0.356 0.076-0.736 0.114-1.14 0.114zM9.264 29.284v-0.42c0-0.096-0.040-0.168-0.12-0.216-0.076-0.048-0.206-0.072-0.39-0.072-0.212 0-0.354 0.024-0.426 0.072-0.076 0.052-0.114 0.124-0.114 0.216v0.42h1.050zM11.815 27.106h0.972l0.756 2.844 0.756-2.844h0.87l0.816 2.844 0.696-2.844h0.948l-1.248 3.894h-0.924l-0.744-2.826-0.768 2.826h-0.924l-1.206-3.894zM19.455 31.060c-0.18 0-0.328-0.006-0.444-0.018s-0.24-0.036-0.372-0.072c-0.144-0.040-0.26-0.096-0.348-0.168-0.088-0.076-0.162-0.182-0.222-0.318-0.060-0.132-0.090-0.292-0.090-0.48v-0.858c0-0.192 0.030-0.36 0.090-0.504s0.138-0.256 0.234-0.336c0.084-0.068 0.194-0.124 0.33-0.168 0.14-0.048 0.276-0.078 0.408-0.090 0.152-0.008 0.29-0.012 0.414-0.012 0.184 0 0.33 0.006 0.438 0.018 0.112 0.008 0.234 0.032 0.366 0.072 0.144 0.044 0.26 0.104 0.348 0.18 0.092 0.076 0.17 0.184 0.234 0.324 0.060 0.144 0.090 0.316 0.090 0.516v0.858c0 0.18-0.030 0.338-0.090 0.474-0.056 0.136-0.13 0.242-0.222 0.318-0.080 0.068-0.19 0.124-0.33 0.168-0.136 0.040-0.27 0.066-0.402 0.078-0.12 0.012-0.264 0.018-0.432 0.018zM19.455 30.514c0.164 0 0.288-0.012 0.372-0.036 0.084-0.028 0.142-0.070 0.174-0.126 0.036-0.056 0.054-0.138 0.054-0.246v-1.098c0-0.16-0.042-0.272-0.126-0.336s-0.242-0.096-0.474-0.096c-0.232 0-0.39 0.032-0.474 0.096s-0.126 0.176-0.126 0.336v1.098c0 0.108 0.016 0.19 0.048 0.246 0.036 0.056 0.096 0.098 0.18 0.126 0.084 0.024 0.208 0.036 0.372 0.036zM21.613 28.096h0.834v0.51c0-0.092 0.038-0.182 0.114-0.27s0.172-0.16 0.288-0.216c0.12-0.056 0.238-0.084 0.354-0.084h0.312v0.726h-0.3c-0.248 0-0.432 0.038-0.552 0.114-0.116 0.076-0.174 0.202-0.174 0.378v1.746h-0.876v-2.904zM24.022 26.8h0.876v4.2h-0.876v-4.2zM26.808 31.060c-0.344 0-0.598-0.024-0.762-0.072-0.164-0.052-0.278-0.148-0.342-0.288s-0.096-0.358-0.096-0.654v-1.134c0-0.32 0.090-0.546 0.27-0.678 0.184-0.132 0.48-0.198 0.888-0.198 0.192 0 0.342 0.012 0.45 0.036 0.112 0.020 0.202 0.058 0.27 0.114 0.068 0.052 0.138 0.13 0.21 0.234v-1.62h0.876v4.2h-0.846v-0.33c-0.072 0.116-0.138 0.198-0.198 0.246-0.056 0.044-0.136 0.078-0.24 0.102-0.108 0.028-0.268 0.042-0.48 0.042zM27.030 30.514c0.196 0 0.34-0.010 0.432-0.030s0.154-0.056 0.186-0.108c0.032-0.056 0.048-0.138 0.048-0.246v-1.17c0-0.1-0.018-0.176-0.054-0.228-0.032-0.056-0.092-0.096-0.18-0.12-0.084-0.024-0.212-0.036-0.384-0.036-0.184 0-0.316 0.012-0.396 0.036-0.080 0.020-0.134 0.058-0.162 0.114-0.024 0.052-0.036 0.14-0.036 0.264v1.11c0 0.112 0.012 0.198 0.036 0.258 0.028 0.056 0.080 0.096 0.156 0.12s0.194 0.036 0.354 0.036z"></path>
</symbol>
<symbol id="icon-user" viewBox="0 0 31 32">
<path stroke-linejoin="round" stroke-linecap="round" stroke-miterlimit="4" stroke-width="2.56" d="M25.6 27.52v-2.56c0-1.358-0.539-2.66-1.5-3.62s-2.262-1.5-3.62-1.5h-10.24c-1.358 0-2.66 0.539-3.62 1.5s-1.5 2.262-1.5 3.62v2.56"></path>
<path stroke-linejoin="round" stroke-linecap="round" stroke-miterlimit="4" stroke-width="2.56" d="M15.36 14.72c2.828 0 5.12-2.292 5.12-5.12s-2.292-5.12-5.12-5.12c-2.828 0-5.12 2.292-5.12 5.12s2.292 5.12 5.12 5.12z"></path>
</symbol>
<symbol id="icon-vector" viewBox="0 0 34 32">
<path d="M17.011 27.032l-0.168 0.168-0.185-0.168c-8-7.259-13.288-12.059-13.288-16.926 0-3.368 2.526-5.895 5.895-5.895 2.594 0 5.12 1.684 6.013 3.975h3.133c0.893-2.291 3.419-3.975 6.013-3.975 3.368 0 5.895 2.526 5.895 5.895 0 4.867-5.288 9.667-13.305 16.926zM24.421 0.842c-2.931 0-5.743 1.364-7.579 3.503-1.836-2.139-4.648-3.503-7.579-3.503-5.187 0-9.263 4.059-9.263 9.263 0 6.349 5.726 11.554 14.4 19.419l2.442 2.223 2.442-2.223c8.674-7.865 14.4-13.069 14.4-19.419 0-5.204-4.076-9.263-9.263-9.263z"></path>
</symbol>
<symbol id="icon-instagram" viewBox="0 0 32 32">
<path fill="none" stroke="#266294" style="stroke: var(--color1, #266294)" stroke-linejoin="round" stroke-linecap="round" stroke-miterlimit="4" stroke-width="2.6667" d="M22.667 2.667h-13.333c-3.682 0-6.667 2.985-6.667 6.667v13.333c0 3.682 2.985 6.667 6.667 6.667h13.333c3.682 0 6.667-2.985 6.667-6.667v-13.333c0-3.682-2.985-6.667-6.667-6.667z"></path>
<path fill="none" stroke="#266294" style="stroke: var(--color1, #266294)" stroke-linejoin="round" stroke-linecap="round" stroke-miterlimit="4" stroke-width="2.6667" d="M21.333 15.16c0.165 1.11-0.025 2.243-0.542 3.239s-1.334 1.803-2.336 2.308c-1.002 0.504-2.138 0.68-3.245 0.502s-2.131-0.701-2.924-1.494c-0.793-0.793-1.316-1.816-1.494-2.924s-0.003-2.243 0.502-3.245c0.504-1.002 1.312-1.82 2.307-2.336s2.129-0.706 3.239-0.542c1.132 0.168 2.18 0.695 2.989 1.504s1.337 1.857 1.505 2.989z"></path>
<path fill="none" stroke="#266294" style="stroke: var(--color1, #266294)" stroke-linejoin="round" stroke-linecap="round" stroke-miterlimit="4" stroke-width="2.6667" d="M23.333 8.667h0.013"></path>
</symbol>
<symbol id="icon-facebook" viewBox="0 0 19 32">
<path stroke-linejoin="round" stroke-linecap="round" stroke-miterlimit="4" stroke-width="2.9091" d="M17.455 1.455h-4.364c-1.929 0-3.779 0.766-5.143 2.13s-2.13 3.214-2.13 5.143v4.364h-4.364v5.818h4.364v11.636h5.818v-11.636h4.364l1.455-5.818h-5.818v-4.364c0-0.386 0.153-0.756 0.426-1.029s0.643-0.426 1.029-0.426h4.364v-5.818z"></path>
</symbol>
<symbol id="icon-youtube" viewBox="0 0 32 32">
<path stroke-linejoin="round" stroke-linecap="round" stroke-miterlimit="4" stroke-width="2.6667" d="M30.053 8.56c-0.158-0.633-0.481-1.213-0.935-1.681s-1.024-0.808-1.651-0.986c-2.293-0.56-11.467-0.56-11.467-0.56s-9.173 0-11.467 0.613c-0.628 0.178-1.197 0.518-1.652 0.986s-0.777 1.048-0.935 1.681c-0.42 2.327-0.625 4.688-0.613 7.053-0.015 2.383 0.19 4.762 0.613 7.107 0.175 0.613 0.504 1.171 0.958 1.619s1.014 0.772 1.629 0.941c2.293 0.613 11.467 0.613 11.467 0.613s9.173 0 11.467-0.613c0.628-0.178 1.197-0.518 1.651-0.986s0.777-1.048 0.935-1.681c0.416-2.31 0.622-4.653 0.613-7 0.015-2.383-0.19-4.762-0.613-7.107z"></path>
<path stroke-linejoin="round" stroke-linecap="round" stroke-miterlimit="4" stroke-width="2.6667" d="M13 20.027l7.667-4.36-7.667-4.36v8.72z"></path>
</symbol>
<symbol id="icon-instagram" viewBox="0 0 32 32">
<path stroke-linejoin="round" stroke-linecap="round" stroke-miterlimit="4" stroke-width="2.6667" d="M22.667 2.667h-13.333c-3.682 0-6.667 2.985-6.667 6.667v13.333c0 3.682 2.985 6.667 6.667 6.667h13.333c3.682 0 6.667-2.985 6.667-6.667v-13.333c0-3.682-2.985-6.667-6.667-6.667z"></path>
<path stroke-linejoin="round" stroke-linecap="round" stroke-miterlimit="4" stroke-width="2.6667" d="M21.333 15.16c0.165 1.11-0.025 2.243-0.542 3.239s-1.334 1.803-2.336 2.308c-1.002 0.504-2.138 0.68-3.245 0.502s-2.131-0.701-2.924-1.494c-0.793-0.793-1.316-1.816-1.494-2.924s-0.003-2.243 0.502-3.245c0.504-1.002 1.312-1.82 2.307-2.336s2.129-0.706 3.239-0.542c1.132 0.168 2.18 0.695 2.989 1.504s1.337 1.857 1.505 2.989z"></path>
<path stroke-linejoin="round" stroke-linecap="round" stroke-miterlimit="4" stroke-width="2.6667" d="M23.333 8.667h0.013"></path>
</symbol>
<symbol id="icon-twitter" viewBox="0 0 32 32">
<path stroke-linejoin="round" stroke-linecap="round" stroke-miterlimit="4" stroke-width="2.6667" d="M30.667 4c-1.277 0.901-2.691 1.589-4.187 2.040-0.803-0.923-1.87-1.578-3.057-1.875s-2.437-0.222-3.58 0.214c-1.143 0.436-2.125 1.213-2.812 2.226s-1.047 2.212-1.031 3.435v1.333c-2.343 0.061-4.665-0.459-6.759-1.513s-3.894-2.609-5.241-4.527c0 0-5.333 12 6.667 17.333-2.746 1.864-6.017 2.799-9.333 2.667 12 6.667 26.667 0 26.667-15.333-0.001-0.371-0.037-0.742-0.107-1.107 1.361-1.342 2.321-3.036 2.773-4.893z"></path>
</symbol>
<symbol id="icon-star" viewBox="0 0 32 32">
<path stroke-linejoin="miter" stroke-linecap="butt" stroke-miterlimit="4" stroke-width="2.4615" d="M16 2.71l4.231 7.631c0.247 0.445 0.678 0.759 1.178 0.856l8.565 1.666-5.95 6.382c-0.347 0.372-0.512 0.879-0.45 1.385l1.062 8.66-7.908-3.687c-0.462-0.215-0.995-0.215-1.456 0l-7.908 3.687 1.062-8.66c0.062-0.505-0.103-1.012-0.45-1.385l-5.95-6.382 8.565-1.666c0.5-0.097 0.931-0.411 1.178-0.856l4.231-7.631z"></path>
</symbol>
<symbol id="icon-burger" viewBox="0 0 43 32">
<path d="M0 0h42.667v4h-42.667v-4z"></path>
<path d="M10.667 14h21.333v4h-21.333v-4z"></path>
<path d="M0 28h42.667v4h-42.667v-4z"></path>
</symbol>
<symbol id="icon-close" viewBox="0 0 32 32">
<path d="M32 3.224l-3.224-3.224-12.776 12.776-12.776-12.776-3.224 3.224 12.776 12.776-12.776 12.776 3.224 3.224 12.776-12.776 12.776 12.776 3.224-3.224-12.776-12.776 12.776-12.776z"></path>
</symbol>
<symbol id="icon-check" viewBox="0 0 32 32">
<path stroke-linejoin="miter" stroke-linecap="butt" stroke-miterlimit="4" stroke-width="1.6" d="M4.8 1.6h22.4c1.767 0 3.2 1.433 3.2 3.2v22.4c0 1.767-1.433 3.2-3.2 3.2h-22.4c-1.767 0-3.2-1.433-3.2-3.2v-22.4c0-1.767 1.433-3.2 3.2-3.2z"></path>
</symbol>
</defs>
</svg>
